PathFileType	4	(X/Y/Z)	C:/Users/beibeiliu/ov580/test_trc\sequence.22_training_dense_right.trc
DataRate	CameraRate	NumFrames	NumMarkers	Units	OrigDataRate	OrigDataStartFrame	OrigNumFrames
120	120	12	19	mm	120	41	324
Frame#	Time	ThumbCMC			ThumbMCP			ThumbIP			ThumbTip			IndexMCP			IndexPIP			IndexTip			MiddleMCP			MiddlePIP			MiddleTip			RingMCP			RingPIP			RingTip			PinkyMCP			PinkyPIP			PinkyTip			BackHand1			BackHand2			BackHand3	
		X0	Y0	Z0	X1	Y1	Z1	X2	Y2	Z2	X3	Y3	Z3	X4	Y4	Z4	X5	Y5	Z5	X6	Y6	Z6	X7	Y7	Z7	X8	Y8	Z8	X9	Y9	Z9	X10	Y10	Z10	X11	Y11	Z11	X12	Y12	Z12	X13	Y13	Z13	X14	Y14	Z14	X15	Y15	Z15	X16	Y16	Z16	X17	Y17	Z17	X18	Y18	Z18	
40	0.333333	209.591	39.6231	52.9121	191.025	36.695	27.3278	181.258	38.9339	6.0659	175.786	38.0375	-13.8424	225.73	63.1374	-2.16636	211.602	61.0982	-23.3591	189.735	55.7283	-39.9426	229.254	40.7215	-15.2645	202.24	32.6021	-19.6591	200.1	21.7305	12.919	233.371	21.0846	-14.8339	206.232	17.4026	-13.6173	206.608	11.4777	13.5379	244.095	5.94888	-12.0491	219.837	5.64376	-20.3564	208.325	5.81763	2.47088	254.497	17.5839	30.8051	255.761	7.98892	55.7648	245.525	33.8326	49.0586	
41	0.341667	211.143	37.4342	52.7351	190.064	36.9553	28.9289	184.519	38.6944	3.94977	175.505	38.7116	-16.9691	225.395	64.2008	-2.9933	210.978	61.8986	-24.4191	192.459	58.3883	-37.8115	226.977	43.1764	-17.177	202.805	28.5528	-19.5455	203.47	19.4902	12.9684	231.607	22.0096	-17.9589	207.34	18.2739	-15.4613	209.81	11.3178	15.3976	245.365	5.33548	-10.6616	219.366	8.96468	-19.1096	208.885	5.65551	0.759891	257.056	16.2949	32.1018	254.228	8.39865	52.3803	244.57	36.7749	50.7556	
42	0.35	212.125	36.8374	51.1944	191.952	34.7712	27.7547	182.888	38.4458	2.83796	174.829	38.8293	-18.0686	225.251	61.1429	-7.1785	212.53	60.0751	-23.8225	193.66	55.5893	-38.5942	228.419	40.9244	-18.2301	204.752	29.1199	-21.9558	201.506	19.9434	11.4412	231.992	25.3865	-15.0165	206.905	16.7929	-13.6006	206.561	14.6285	12.9187	246.218	6.03353	-11.8766	222.987	6.17418	-22.4466	208.672	6.73843	1.80391	257.243	17.8345	32.1048	256.091	8.8039	52.1187	244.889	38.3339	47.491	
43	0.358333	208.43	37.6352	51.9279	192.811	32.5749	25.8063	183.938	34.5152	3.98283	177.514	34.1719	-15.1223	226.242	60.7944	-3.04445	207.345	62.1014	-26.6258	192.178	55.8472	-39.0202	229.491	43.0147	-12.8058	201.794	31.9879	-19.6593	199.638	21.4358	9.9062	234.51	26.1771	-14.7826	206.872	16.886	-11.8902	209.336	10.2039	13.0867	247.635	9.31937	-13.4999	224.047	10.2401	-21.3245	210.538	6.89842	0.221419	256.658	20.7985	32.9786	256.996	12.4807	53.6784	244.95	35.5395	50.318	
44	0.366667	209.722	35.0986	47.984	192.092	30.0939	25.4515	183.591	30.517	3.17102	176.558	29.6799	-17.5965	220.499	64.3725	-6.97666	206.73	62.403	-24.0782	191.682	50.6099	-41.9265	225.438	45.0586	-14.9068	202.918	27.6057	-19.4364	201.848	20.7943	11.9592	231.206	26.4959	-17.2828	206.756	16.3128	-11.6978	210.649	11.1116	13.5385	246.134	15.3022	-10.597	224.463	9.61784	-20.9187	212.036	10.8244	-0.439885	258.12	26.1238	29.5326	255.305	12.9884	56.4299	241.657	39.8664	51.6933	
45	0.375	206.303	34.3747	48.0293	188.83	28.6905	21.2855	179.317	29.1285	-0.19902	173.073	26.6284	-21.4641	218.892	63.4049	-3.88185	201.578	61.5739	-24.4826	185.796	49.7656	-42.9107	222.889	47.7581	-14.4984	200.787	30.7387	-21.1442	202.854	19.9068	11.4495	232.484	31.075	-13.4125	208.06	16.3652	-12.9236	209.89	12.277	13.8095	249.139	17.6578	-13.7428	229.536	15.0863	-23.147	211.441	5.43397	-4.13097	253.256	30.7986	32.3713	257.43	17.0159	56.9789	236.646	46.3552	49.9581	
46	0.383333	199.543	33.8025	47.4871	187.709	25.0769	21.1579	177.527	24.209	-3.90276	174.528	20.7729	-19.0673	208.493	64.9242	-4.46156	198.999	57.972	-27.1665	184.598	43.6502	-46.3434	220.188	47.207	-14.8949	199.488	26.6138	-20.4653	202.944	18.7405	10.3185	230.854	34.0346	-14.2742	208.757	16.003	-14.2848	210.966	12.6849	13.028	250.568	22.1391	-14.8499	227.866	12.0767	-23.341	213.682	10.008	-5.19326	253.311	34.2508	27.5762	255.378	25.6075	53.1889	234.244	46.594	48.8567	
47	0.391667	200.362	30.8834	49.202	183.297	21.7975	20.2814	175.748	19.5221	-1.2823	176.358	17.1229	-22.3459	202.323	64.0123	-4.70371	195.996	55.2933	-30.8331	181.119	43.3955	-45.6675	218.004	45.0779	-18.2962	199.694	21.0833	-19.9924	201.188	18.3613	12.0896	230.52	34.2648	-15.2915	211.766	11.146	-14.5579	211.755	11.2838	11.2618	248.731	26.6901	-13.0538	229.147	18.0844	-23.2321	214.031	9.74056	-5.74789	251.527	39.838	31.3038	250.652	31.2355	57.7498	228.224	48.2924	51.6712	
48	0.4	194.8	29.9406	47.2037	181.545	17.9267	20.7838	176.47	15.5528	-4.60371	174.247	11.094	-20.6486	198.485	61.0413	-13.1636	188.667	55.1386	-30.0257	183.342	38.7278	-48.1974	215.305	43.8426	-20.0046	199.951	20.0014	-23.17	201.279	14.9987	9.4425	226.617	35.2627	-17.3728	213.334	12.5207	-18.0588	215.468	10.8921	14.3588	248.734	28.6911	-11.2693	233.145	12.8841	-24.1473	216.305	8.5847	-5.3944	247.061	42.7362	32.0343	249.2	37.0884	54.6441	222.798	51.295	49.2199	
49	0.408333	194.842	29.858	44.0717	182.25	17.4481	14.8514	176.115	11.1627	-3.0126	175.689	7.52239	-24.6282	196.291	57.6479	-12.0491	187.603	47.1699	-37.3175	181.079	30.502	-53.6903	210.815	45.3308	-17.7515	203.905	13.7114	-23.2497	203.028	11.2158	6.35207	228.388	31.7403	-19.6211	212.425	11.2888	-17.9854	214.17	9.499	13.4259	245.683	31.9851	-10.6141	233.908	12.8966	-23.1072	217.461	6.22915	-6.16417	243.307	47.314	28.7702	242.537	40.2594	53.5437	219.372	53.417	47.5915	
50	0.416667	189.161	28.7536	41.3981	179.226	12.5987	16.3727	176.921	7.89192	-3.75308	175.571	3.35649	-26.9175	190.425	56.1267	-16.0301	184.051	45.3997	-38.1813	180.04	28.6261	-54.0007	207.922	40.3325	-24.0085	200.706	14.3526	-26.1707	206.823	8.30995	6.19169	228.27	30.8888	-20.3542	215.415	8.04928	-18.3528	216.193	7.60963	12.9004	244.542	31.3361	-12.9498	230.153	15.2232	-23.8465	221.817	2.76641	-3.40208	236.981	50.8369	25.4769	239.876	45.4624	52.0595	216.428	52.4484	45.5711	
51	0.425	187.085	27.3296	44.5176	180.844	13.7236	14.4385	179.309	6.49111	-4.23691	178.182	0.913036	-26.5767	191.692	53.1282	-15.5301	186.021	41.5309	-36.7265	177.167	23.3296	-54.4945	209.28	40.0038	-21.3184	201.181	11.635	-27.2193	200.409	7.66353	7.5469	228.866	29.4172	-19.7495	211.96	5.2418	-15.2481	215.177	7.0293	13.2419	243.564	30.2697	-14.7875	235.056	11.6153	-23.4242	218.495	2.87377	-0.441947	236.131	51.1357	24.3266	241.822	45.2365	51.7708	212.415	55.2459	43.8131	
